<svg viewBox="0 0 48 48" fill="none" xmlns="http://www.w3.org/2000/svg">
  <path
    d="M24.0435 0.179688C10.8149 0.179688 0.0878906 11.0876 0.0878906 24.5442C0.0878906 35.3093 6.95189 44.4423 16.4702 47.6641C17.6674 47.8896 18.1069 47.1355 18.1069 46.492C18.1069 45.911 18.0847 43.9917 18.0744 41.9557C11.4099 43.4296 10.0037 39.081 10.0037 39.081C8.91394 36.2647 7.34382 35.5159 7.34382 35.5159C5.17034 34.0037 7.50766 34.0347 7.50766 34.0347C9.91321 34.2062 11.1799 36.5456 11.1799 36.5456C13.3165 40.2704 16.784 39.1936 18.151 38.571C18.366 36.9966 18.9868 35.921 19.6719 35.3129C14.351 34.6968 8.75764 32.6077 8.75764 23.2717C8.75764 20.6116 9.69344 18.4381 11.2259 16.7318C10.9771 16.1177 10.1572 13.64 11.4579 10.2839C11.4579 10.2839 13.4696 9.62904 18.0474 12.7814C19.9583 12.2415 22.0076 11.9708 24.0435 11.9615C26.0793 11.9708 28.1302 12.2415 30.0447 12.7814C34.6169 9.62904 36.6258 10.2839 36.6258 10.2839C37.9297 13.64 37.1094 16.1177 36.8606 16.7318C38.3966 18.4381 39.3261 20.6116 39.3261 23.2717C39.3261 32.6298 33.722 34.6904 28.3877 35.2936C29.2469 36.0497 30.0125 37.5324 30.0125 39.8056C30.0125 43.0653 29.9848 45.6891 29.9848 46.492C29.9848 47.1404 30.416 47.9001 31.6302 47.6608C41.1434 44.4355 47.9986 35.3057 47.9986 24.5442C47.9986 11.0876 37.2732 0.179688 24.0435 0.179688" />
  <path
    d="M9.16109 35.1611C9.10833 35.2826 8.92109 35.3185 8.75051 35.2354C8.57676 35.1559 8.47918 34.9909 8.53551 34.8694C8.58708 34.7447 8.77471 34.7104 8.94807 34.7932C9.12222 34.873 9.22139 35.0397 9.16109 35.1611" />
  <path
    d="M10.1313 36.2635C10.017 36.3712 9.7937 36.3212 9.64217 36.1509C9.48547 35.9811 9.45612 35.7539 9.57195 35.6446C9.68977 35.5368 9.90637 35.5873 10.0635 35.7571C10.2202 35.929 10.2507 36.1545 10.1313 36.2635" />
  <path
    d="M11.076 37.6655C10.9292 37.7691 10.6892 37.6719 10.5408 37.4552C10.3941 37.2386 10.3941 36.9787 10.544 36.8746C10.6928 36.7706 10.9292 36.8642 11.0796 37.0792C11.2259 37.2991 11.2259 37.5593 11.076 37.6655" />
  <path
    d="M12.3698 39.021C12.2385 39.1682 11.9588 39.1287 11.7541 38.9278C11.5446 38.7313 11.4863 38.4525 11.618 38.3052C11.7509 38.1575 12.0322 38.1991 12.2385 38.3984C12.4463 38.5945 12.5098 38.8753 12.3698 39.021" />
  <path
    d="M14.1549 39.8095C14.097 40.0004 13.8276 40.0871 13.5563 40.006C13.2853 39.9225 13.108 39.699 13.1628 39.5061C13.2191 39.314 13.4896 39.2237 13.763 39.3104C14.0335 39.3935 14.2112 39.6154 14.1549 39.8095" />
  <path
    d="M16.1154 39.9552C16.1221 40.1561 15.892 40.3228 15.6072 40.326C15.3208 40.3329 15.0891 40.1703 15.0859 39.9726C15.0859 39.7696 15.3109 39.6046 15.5973 39.5998C15.8821 39.5941 16.1154 39.7555 16.1154 39.9552" />
  <path
    d="M17.9398 39.6399C17.9739 39.836 17.776 40.0373 17.4931 40.0906C17.2151 40.1426 16.9576 40.0216 16.9223 39.8271C16.8878 39.6262 17.0893 39.4249 17.367 39.3728C17.6502 39.3228 17.9037 39.4406 17.9398 39.6399" />
</svg>
  