<svg viewBox="0 0 34 34" fill="none" stroke-width="2" xmlns="http://www.w3.org/2000/svg">
  <g clip-path="url(#clip0_144_5)">
    <path
      d="M14.6061 16.9707L21.4596 16.9707M27.0562 18.3848L14.763 24.893C13.6613 25.4763 13.1102 25.768 12.7469 25.6841C12.4318 25.6114 12.1715 25.3915 12.0479 25.0927C11.9054 24.7481 12.1024 24.1558 12.4967 22.9728L14.3288 17.4766C14.3914 17.2889 14.4224 17.1952 14.4348 17.0992C14.4458 17.014 14.4464 16.9278 14.4353 16.8426C14.4232 16.7488 14.3925 16.6569 14.3328 16.4775L12.4965 10.9686C12.1021 9.78568 11.9051 9.19398 12.0476 8.84939C12.1712 8.55054 12.4315 8.3302 12.7466 8.25745C13.1099 8.17355 13.6612 8.46505 14.7633 9.04848L27.0565 15.5567C27.9229 16.0153 28.3561 16.2449 28.4977 16.5508C28.6211 16.8173 28.6212 17.1245 28.4979 17.391C28.3563 17.6968 27.9232 17.9261 27.0576 18.3843L27.0562 18.3848Z"
      stroke="none" stroke-width="2" stroke-linecap="round" stroke-linejoin="round" />
  </g>
  <defs>
    <clipPath id="clip0_144_5">
      <rect width="24" height="24" fill="none" transform="translate(17) rotate(45)" />
    </clipPath>
  </defs>
</svg>
  